{"title":"Ex.Machina.2015.1080p.BluRay.H264.AAC-RARBG","uid":11925822,"size":2200038949,"categoryP":"video","categoryS":"hd___movies","magnet":"?xt=urn:btih:479d9df089a1227016abd099bd845b7405b8608f&amp;dn=Ex.Machina.2015.1080p.BluRay.H264.AAC-RARBG&amp;tr=udp%3A%2F%2Ftracker.openbittorrent.com%3A80&amp;tr=udp%3A%2F%2Fopen.demonii.com%3A1337&amp;tr=udp%3A%2F%2Ftracker.coppersurfer.tk%3A6969&amp;tr=udp%3A%2F%2Fexodus.desync.com%3A6969","seeders":16,"leechers":9,"uploader":"vickey1992","files":6,"time":1431706297,"description":"Video\nID                                       : 1\nFormat                                   : AVC\nFormat/Info                              : Advanced Video Codec\nFormat profile                           : &lt;a class=&quot;__cf_email__&quot; href=&quot;/cdn-cgi/l/email-protection&quot; data-cfemail=&quot;b3fbdad4dbf3ff879d82&quot;&gt;[email&amp;#160;protected]&lt;/a&gt;&lt;script cf-hash='f9e31' type=&quot;text/javascript&quot;&gt;\n/* &lt;![CDATA[ */!function(){try{var t=&quot;currentScript&quot;in document?document.currentScript:function(){for(var t=document.getElementsByTagName(&quot;script&quot;),e=t.length;e--;)if(t[e].getAttribute(&quot;cf-hash&quot;))return t[e]}();if(t&amp;&amp;t.previousSibling){var e,r,n,i,c=t.previousSibling,a=c.getAttribute(&quot;data-cfemail&quot;);if(a){for(e=&quot;&quot;,r=parseInt(a.substr(0,2),16),n=2;a.length-n;n+=2)i=parseInt(a.substr(n,2),16)^r,e+=String.fromCharCode(i);e=document.createTextNode(e),c.parentNode.replaceChild(e,c)}}}catch(u){}}();/* ]]&gt; */&lt;/script&gt;\nFormat settings, CABAC                   : Yes\nFormat settings, ReFrames                : 4 frames\nCodec ID                                 : avc1\nCodec ID/Info                            : Advanced Video Coding\nDuration                                 : 1h 48mn\nBit rate                                 : 2 500 Kbps\nWidth                                    : 1 920 pixels\nHeight                                   : 808 pixels\nDisplay aspect ratio                     : 2.40:1\nFrame rate mode                          : Constant\nFrame rate                               : 23.976 fps\nColor space                              : YUV\nChroma subsampling                       : 4:2:0\nBit depth                                : 8 bits\nScan type                                : Progressive\nBits/(Pixel*Frame)                       : 0.067\nStream size                              : 1.87 GiB (91%)\nWriting library                          : x264 core 144 r2525M 40bb568\nEncoding settings                        : cabac=1 / ref=4 / deblock=1:-1:-1 / analyse=0x3:0x113 / me=umh / subme=9 / psy=1 / psy_rd=1.00:0.15 / mixed_ref=1 / me_range=24 / chroma_me=1 / trellis=2 / 8x8dct=1 / cqm=0 / deadzone=21,11 / fast_pskip=1 / chroma_qp_offset=-3 / threads=32 / lookahead_threads=4 / sliced_threads=0 / nr=0 / decimate=1 / interlaced=0 / bluray_compat=0 / constrained_intra=0 / bframes=3 / b_pyramid=2 / b_adapt=1 / b_bias=0 / direct=1 / weightb=1 / open_gop=0 / weightp=2 / keyint=250 / keyint_min=25 / scenecut=40 / intra_refresh=0 / rc_lookahead=50 / rc=2pass / mbtree=1 / bitrate=2500 / ratetol=1.0 / qcomp=0.60 / qpmin=0 / qpmax=69 / qpstep=4 / cplxblur=20.0 / qblur=0.5 / vbv_maxrate=31250 / vbv_bufsize=31250 / nal_hrd=none / filler=0 / ip_ratio=1.40 / aq=3:1.00\nEncoded date                             : UTC 1904-01-01 00:00:00\nTagged date                              : UTC 1904-01-01 00:00:00\n\nAudio\nID                                       : 2\nFormat                                   : AAC\nFormat/Info                              : Advanced Audio Codec\nFormat profile                           : LC\nCodec ID                                 : 40\nDuration                                 : 1h 48mn\nBit rate mode                            : Constant\nBit rate                                 : 224 Kbps\nChannel(s)                               : 2 channels\nChannel(s)_Original                      : 6 channels\nChannel positions                        : Front: L C R, Side: L R, LFE\nSampling rate                            : 48.0 KHz\nCompression mode                         : Lossy\nStream size                              : 173 MiB (8%)\nLanguage                                 : English\nEncoded date                             : UTC 1904-01-01 00:00:00\nTagged date                              : UTC 1904-01-01 00:00:00\n\nMenu #1\nID                                       : 3\nCodec ID                                 : text\nDuration                                 : 1h 48mn\nLanguage                                 : English\nEncoded date                             : UTC 1904-01-01 00:00:00\nTagged date                              : UTC 1904-01-01 00:00:00\nBit rate mode                            : CBR\n00:00:00.000                             : 00:00:00.000\n00:04:34.984                             : 00:04:34.941\n00:11:16.677                             : 00:11:16.634\n00:15:08.200                             : 00:15:08.157\n00:23:38.794                             : 00:23:38.751\n00:31:58.042                             : 00:31:57.999\n00:36:05.206                             : 00:36:05.163\n00:40:26.801                             : 00:40:26.758\n00:45:56.422                             : 00:45:56.379\n00:53:28.999                             : 00:53:28.956\n01:00:26.124                             : 01:00:26.081\n01:04:01.297                             : 01:04:01.254\n01:07:19.120                             : 01:07:19.077\n01:13:22.066                             : 01:13:22.023\n01:16:56.154                             : 01:16:56.111\n01:21:36.560                             : 01:21:36.517\n01:27:36.878                             : 01:27:36.835\n01:32:54.195                             : 01:32:54.152\n01:38:51.051                             : 01:38:51.008\n01:42:26.975                             : 01:42:26.932\n\nMenu #2\n00:00:00.043                             : 00:00:00.000\n00:04:34.984                             : 00:04:34.941\n00:11:16.677                             : 00:11:16.634\n00:15:08.200                             : 00:15:08.157\n00:23:38.794                             : 00:23:38.751\n00:31:58.042                             : 00:31:57.999\n00:36:05.206                             : 00:36:05.163\n00:40:26.801                             : 00:40:26.758\n00:45:56.422                             : 00:45:56.379\n00:53:28.999                             : 00:53:28.956\n01:00:26.124                             : 01:00:26.081\n01:04:01.297                             : 01:04:01.254\n01:07:19.120                             : 01:07:19.077\n01:13:22.066                             : 01:13:22.023\n01:16:56.154                             : 01:16:56.111\n01:21:36.560                             : 01:21:36.517\n01:27:36.878                             : 01:27:36.835\n01:32:54.195                             : 01:32:54.152\n01:38:51.051                             : 01:38:51.008\n01:42:26.975                             : 01:42:26.932","torrent":{"xt":"urn:btih:479d9df089a1227016abd099bd845b7405b8608f","amp;dn":"Ex.Machina.2015.1080p.BluRay.H264.AAC-RARBG","amp;tr":["udp%3A%2F%2Ftracker.openbittorrent.com%3A80","udp%3A%2F%2Fopen.demonii.com%3A1337","udp%3A%2F%2Ftracker.coppersurfer.tk%3A6969","udp%3A%2F%2Fexodus.desync.com%3A6969"],"infoHash":"479d9df089a1227016abd099bd845b7405b8608f","infoHashBuffer":{"type":"Buffer","data":[71,157,157,240,137,161,34,112,22,171,208,153,189,132,91,116,5,184,96,143]},"announce":[],"urlList":[]}}